<!-- sprite.svg -->
<svg xmlns="http://www.w3.org/2000/svg" xmlns:xlink="http://www.w3.org/1999/xlink">
    <defs>
        <symbol
            xmlns="http://www.w3.org/2000/svg"
            className="h-6 w-6"
            fill="none"
            viewBox="0 0 24 24"
            stroke="currentColor"
            id="close"
        >
            <path
                strokeLinecap="round"
                strokeLinejoin="round"
                stroke-width="2"
                d="M6 18L18 6M6 6l12 12"
            />
        </symbol>
        <symbol id="load" viewBox="0 0 24 24" stroke-width="1.5" stroke="currentColor"
            fill="none" stroke-linecap="round" stroke-linejoin="round">
            <path stroke="none" d="M0 0h24v24H0z" fill="none" />
            <path d="M12 3a9 9 0 1 0 9 9" />
        </symbol>
        <symbol
            xmlns="http://www.w3.org/2000/svg"
            className="h-6 w-6"
            fill="none"
            viewBox="0 0 24 24"
            stroke="currentColor"
            id="menu"
        >
            <path strokeLinecap="round" strokeLinejoin="round" stroke-width="2"
                d="M4 6h16M4 12h16m-7 6h7" />
        </symbol>
        <symbol xmlns="http://www.w3.org/2000/svg" id="instagram" viewBox="0 0 24 24">
            <path
                fill="currentColor"
                d="M15.233 5.488c-.843-.038-1.097-.046-3.233-.046s-2.389.008-3.232.046c-2.17.099-3.181 1.127-3.279 3.279-.039.844-.048 1.097-.048 3.233s.009 2.389.047 3.233c.099 2.148 1.106 3.18 3.279 3.279.843.038 1.097.047 3.233.047 2.137 0 2.39-.008 3.233-.046 2.17-.099 3.18-1.129 3.279-3.279.038-.844.046-1.097.046-3.233s-.008-2.389-.046-3.232c-.099-2.153-1.111-3.182-3.279-3.281zm-3.233 10.62c-2.269 0-4.108-1.839-4.108-4.108 0-2.269 1.84-4.108 4.108-4.108s4.108 1.839 4.108 4.108c0 2.269-1.839 4.108-4.108 4.108zm4.271-7.418c-.53 0-.96-.43-.96-.96s.43-.96.96-.96.96.43.96.96-.43.96-.96.96zm-1.604 3.31c0 1.473-1.194 2.667-2.667 2.667s-2.667-1.194-2.667-2.667c0-1.473 1.194-2.667 2.667-2.667s2.667 1.194 2.667 2.667zm4.333-12h-14c-2.761 0-5 2.239-5 5v14c0 2.761 2.239 5 5 5h14c2.762 0 5-2.239 5-5v-14c0-2.761-2.238-5-5-5zm.952 15.298c-.132 2.909-1.751 4.521-4.653 4.654-.854.039-1.126.048-3.299.048s-2.444-.009-3.298-.048c-2.908-.133-4.52-1.748-4.654-4.654-.039-.853-.048-1.125-.048-3.298 0-2.172.009-2.445.048-3.298.134-2.908 1.748-4.521 4.654-4.653.854-.04 1.125-.049 3.298-.049s2.445.009 3.299.048c2.908.133 4.523 1.751 4.653 4.653.039.854.048 1.127.048 3.299 0 2.173-.009 2.445-.048 3.298z" />
        </symbol>
        <symbol xmlns="http://www.w3.org/2000/svg" id="linkedin" viewBox="0 0 24 24">
            <path
                fill="currentColor"
                d="M19 0h-14c-2.761 0-5 2.239-5 5v14c0 2.761 2.239 5 5 5h14c2.762 0 5-2.239 5-5v-14c0-2.761-2.238-5-5-5zm-11 19h-3v-11h3v11zm-1.5-12.268c-.966 0-1.75-.79-1.75-1.764s.784-1.764 1.75-1.764 1.75.79 1.75 1.764-.783 1.764-1.75 1.764zm13.5 12.268h-3v-5.604c0-3.368-4-3.113-4 0v5.604h-3v-11h3v1.765c1.396-2.586 7-2.777 7 2.476v6.759z" />
        </symbol>
        <symbol xmlns="http://www.w3.org/2000/svg" id="github" viewBox="0 0 24 24">
            <path
                fill="currentColor"
                d="M19 0h-14c-2.761 0-5 2.239-5 5v14c0 2.761 2.239 5 5 5h14c2.762 0 5-2.239 5-5v-14c0-2.761-2.238-5-5-5zm-4.466 19.59c-.405.078-.534-.171-.534-.384v-2.195c0-.747-.262-1.233-.55-1.481 1.782-.198 3.654-.875 3.654-3.947 0-.874-.312-1.588-.823-2.147.082-.202.356-1.016-.079-2.117 0 0-.671-.215-2.198.82-.64-.18-1.324-.267-2.004-.271-.68.003-1.364.091-2.003.269-1.528-1.035-2.2-.82-2.2-.82-.434 1.102-.16 1.915-.077 2.118-.512.56-.824 1.273-.824 2.147 0 3.064 1.867 3.751 3.645 3.954-.229.2-.436.552-.508 1.07-.457.204-1.614.557-2.328-.666 0 0-.423-.768-1.227-.825 0 0-.78-.01-.055.487 0 0 .525.246.889 1.17 0 0 .463 1.428 2.688.944v1.489c0 .211-.129.459-.528.385-3.18-1.057-5.472-4.056-5.472-7.59 0-4.419 3.582-8 8-8s8 3.581 8 8c0 3.533-2.289 6.531-5.466 7.59z" />
        </symbol>
        <symbol xmlns="http://www.w3.org/2000/svg" id="youtube" viewBox="0 0 24 24">
            <path
                fill="currentColor"
                d="M10 9.333l5.333 2.662-5.333 2.672v-5.334zm14-4.333v14c0 2.761-2.238 5-5 5h-14c-2.761 0-5-2.239-5-5v-14c0-2.761 2.239-5 5-5h14c2.762 0 5 2.239 5 5zm-4 7c-.02-4.123-.323-5.7-2.923-5.877-2.403-.164-7.754-.163-10.153 0-2.598.177-2.904 1.747-2.924 5.877.02 4.123.323 5.7 2.923 5.877 2.399.163 7.75.164 10.153 0 2.598-.177 2.904-1.747 2.924-5.877z" />
        </symbol>
        <symbol xmlns="http://www.w3.org/2000/svg" id="twitter" viewBox="0 0 24 24">
            <path
                fill="currentColor"
                d="M19 0h-14c-2.761 0-5 2.239-5 5v14c0 2.761 2.239 5 5 5h14c2.762 0 5-2.239 5-5v-14c0-2.761-2.238-5-5-5zm-.139 9.237c.209 4.617-3.234 9.765-9.33 9.765-1.854 0-3.579-.543-5.032-1.475 1.742.205 3.48-.278 4.86-1.359-1.437-.027-2.649-.976-3.066-2.28.515.098 1.021.069 1.482-.056-1.579-.317-2.668-1.739-2.633-3.26.442.246.949.394 1.486.411-1.461-.977-1.875-2.907-1.016-4.383 1.619 1.986 4.038 3.293 6.766 3.43-.479-2.053 1.08-4.03 3.199-4.03.943 0 1.797.398 2.395 1.037.748-.147 1.451-.42 2.086-.796-.246.767-.766 1.41-1.443 1.816.664-.08 1.297-.256 1.885-.517-.439.656-.996 1.234-1.639 1.697z" />
        </symbol>
        <symbol id="medium" viewBox="0 0 24 24" xmlns="http://www.w3.org/2000/svg"
            fill-rule="evenodd"
            clip-rule="evenodd">
            <path
                fill="currentColor"
                d="M19 24h-14c-2.761 0-5-2.239-5-5v-14c0-2.761 2.239-5 5-5h14c2.762 0 5 2.239 5 5v14c0 2.761-2.237 4.999-5 5zm.97-5.649v-.269l-1.247-1.224c-.11-.084-.165-.222-.142-.359v-8.998c-.023-.137.032-.275.142-.359l1.277-1.224v-.269h-4.422l-3.152 7.863-3.586-7.863h-4.638v.269l1.494 1.799c.146.133.221.327.201.523v7.072c.044.255-.037.516-.216.702l-1.681 2.038v.269h4.766v-.269l-1.681-2.038c-.181-.186-.266-.445-.232-.702v-6.116l4.183 9.125h.486l3.593-9.125v7.273c0 .194 0 .232-.127.359l-1.292 1.254v.269h6.274z" />
        </symbol>
         <symbol viewBox="0 0 20 23" id="lattes" fill="none" xmlns="http://www.w3.org/2000/svg">
            <path
                d="M8.01861 1.00087C10.0511 0.966207 13.0676 2.15199 13.1991 2.24186C13.3306 2.33173 11.4396 2.16235 10.7103 2.23315C9.34097 2.36608 8.24327 2.78381 7.55648 3.66041C6.87257 4.53331 6.68816 5.74464 6.86789 7.24923C7.02589 8.57193 7.47282 10.1872 8.19041 12.1298L2.21984 11.1301C1.92503 9.28356 1.81075 7.93839 1.89735 6.78394C1.98702 5.58857 2.29393 4.57631 2.87593 3.41085C3.63622 2.50521 4.27486 1.95322 5.01781 1.60067C5.77149 1.24304 5.98612 1.03553 8.01861 1.00087Z"
                stroke="currentColor" stroke-width="2" />
            <path
                d="M5.60977 21.0001L2.52734 12.8284C7.04632 13.9699 11.1308 13.916 13.7284 12.6152C15.1415 11.9075 16.14 10.8143 16.4738 9.33553C16.6488 8.56078 16.659 8.01518 16.4266 6.77963C16.1942 5.54407 17.698 8.6799 18.0882 9.79329C18.4187 12.3884 17.6306 14.6775 15.5878 16.5822C13.5689 18.4647 10.3001 19.9917 5.60977 21.0001Z"
                stroke="currentColor" stroke-width="2" />
            <path
                d="M12.7677 5.50985C14.2163 6.46529 14.6091 8.0429 13.9889 8.98314C13.3688 9.92336 11.7639 10.1834 10.3153 9.22795C8.86674 8.27251 8.47394 6.69488 9.09407 5.75466C9.71419 4.81444 11.3191 4.55441 12.7677 5.50985Z"
                stroke="currentColor" stroke-width="2" />

        </symbol>
    </defs>
</svg>